<svg xmlns="http://www.w3.org/2000/svg" width="43.904" height="27.442" viewBox="0 0 43.904 27.442">
  <g id="behance-network" opacity="0.71">
    <g id="Group_2" data-name="Group 2" transform="translate(0 0)">
      <g id="Group_1" data-name="Group 1">
        <path id="Path_1" data-name="Path 1" d="M18.062,108.383a6.586,6.586,0,0,0,2.072-1.52,5.906,5.906,0,0,0,1.254-3.943,6.748,6.748,0,0,0-1.243-4.086q-2.075-2.783-7.033-2.854H0v26.764H12.226a19.116,19.116,0,0,0,3.834-.36,7.539,7.539,0,0,0,3.065-1.345,7.421,7.421,0,0,0,1.921-2.1,7.733,7.733,0,0,0,1.21-4.267,7.022,7.022,0,0,0-1.057-3.921A6.1,6.1,0,0,0,18.062,108.383ZM5.409,100.628h5.906a10.411,10.411,0,0,1,3.208.417,2.4,2.4,0,0,1,1.457,2.475,2.52,2.52,0,0,1-1.1,2.349,5.535,5.535,0,0,1-2.87.664h-6.6Zm9.339,17A6.468,6.468,0,0,1,12,118.1H5.409v-7.138h6.679a6.971,6.971,0,0,1,2.717.45,2.87,2.87,0,0,1,1.726,2.873A3.364,3.364,0,0,1,14.747,117.628Z" transform="translate(0 -95.979)" fill="#fff"/>
        <rect id="Rectangle_3" data-name="Rectangle 3" width="11.627" height="3.331" transform="translate(28.057 1.249)" fill="#fff"/>
        <path id="Path_2" data-name="Path 2" d="M299.595,179.126a9.548,9.548,0,0,0-1.6-4.092,8.079,8.079,0,0,0-3.463-2.928,11.465,11.465,0,0,0-4.72-.928,9.769,9.769,0,0,0-7.173,2.744q-2.762,2.746-2.763,7.892,0,5.487,3.065,7.923A11.012,11.012,0,0,0,290,192.172a9.835,9.835,0,0,0,7.549-2.884,6.493,6.493,0,0,0,1.943-3.578h-5.357a4.32,4.32,0,0,1-1.081,1.361,4.484,4.484,0,0,1-2.909.906,5.378,5.378,0,0,1-2.9-.746,4.728,4.728,0,0,1-2.1-4.174H299.77A25.191,25.191,0,0,0,299.595,179.126Zm-14.311.513a5.365,5.365,0,0,1,1.4-3.063,4.219,4.219,0,0,1,3.131-1.133,4.658,4.658,0,0,1,3.115,1.065,4.328,4.328,0,0,1,1.4,3.131Z" transform="translate(-255.871 -164.73)" fill="#fff"/>
      </g>
    </g>
  </g>
</svg>
