<svg xmlns="http://www.w3.org/2000/svg" width="38.408" height="38.408" viewBox="0 0 38.408 38.408">
  <g id="logo" opacity="0.71">
    <path id="Path_5" data-name="Path 5" d="M36.287,0H2.12A2.12,2.12,0,0,0,0,2.121V36.288a2.121,2.121,0,0,0,2.12,2.121H20.514V23.535h-5v-5.8h5V13.463c0-4.96,3.029-7.662,7.454-7.662a41.512,41.512,0,0,1,4.472.228v5.185h-3.07c-2.406,0-2.871,1.144-2.871,2.822v3.7h5.741l-.751,5.8H26.5V38.407h9.787a2.122,2.122,0,0,0,2.122-2.119V2.12A2.12,2.12,0,0,0,36.287,0Z" transform="translate(0 -0.001)" fill="#fff"/>
  </g>
</svg>
