<svg xmlns="http://www.w3.org/2000/svg" width="44.378" height="43.454" viewBox="0 0 44.378 43.454">
  <g id="github" transform="translate(0 -5.329)" opacity="0.71">
    <g id="Group_22" data-name="Group 22" transform="translate(0 5.329)">
      <path id="Path_10" data-name="Path 10" d="M22.186,5.329a22.291,22.291,0,0,0-7.009,43.415c1.109.205,1.514-.483,1.514-1.073,0-.53-.019-1.93-.031-3.789C10.49,45.228,9.186,40.9,9.186,40.9a5.883,5.883,0,0,0-2.463-3.259c-2.016-1.381.15-1.354.15-1.354a4.66,4.66,0,0,1,3.4,2.3c1.98,3.4,5.195,2.421,6.46,1.85a4.755,4.755,0,0,1,1.409-2.979c-4.926-.563-10.107-2.474-10.107-11.008a8.635,8.635,0,0,1,2.285-5.98,8.027,8.027,0,0,1,.216-5.894s1.864-.6,6.1,2.283a20.944,20.944,0,0,1,11.111,0c4.235-2.882,6.1-2.283,6.1-2.283a8.039,8.039,0,0,1,.222,5.894,8.618,8.618,0,0,1,2.28,5.98c0,8.557-5.187,10.44-10.129,10.992a5.329,5.329,0,0,1,1.506,4.124c0,2.979-.028,5.381-.028,6.11,0,.6.4,1.29,1.525,1.071A22.293,22.293,0,0,0,22.186,5.329Z" transform="translate(0 -5.329)" fill="#fff"/>
    </g>
  </g>
</svg>
