<svg xmlns="http://www.w3.org/2000/svg" width="42.942" height="74.608" viewBox="0 0 42.942 74.608">
  <g id="Group_1" data-name="Group 1" transform="translate(-561.929 -339.665)">
    <path id="Path_1" data-name="Path 1" d="M586.113,372.293q-.648,11.739-11.886,12.651-11.828-.824-12.3-12.651.794-10.62,10.179-12.563V353.7q-.677-5.09-5.369-6.252t-4.693-7.782h5.207q0,4.3,4.736,5.458t5.414,8.429v6.178Q585.142,361.672,586.113,372.293Zm-5.267,0q-.353-7.473-6.5-7.885-6.561.413-7.09,7.885.588,7.149,6.973,7.708Q580.346,379.442,580.846,372.293Z" fill="#fff"/>
    <path id="Path_2" data-name="Path 2" d="M613.073,441.412q-.854,11.945-12,12.651-11.562-.589-12.21-12.651V408.873h5.354v32.539q.765,7.267,6.855,7.709,6.06-.53,6.561-7.709a10.093,10.093,0,0,0-2.942-7.061q-2.943-3.148,1.177-8.3l4.708,1.766q-3.53,3.03-.515,6.414A10.654,10.654,0,0,1,613.073,441.412Z" transform="translate(-15.484 -39.79)" fill="#fff"/>
    <path id="Path_3" data-name="Path 3" d="M630.056,405.273q-.971,11.356-12.21,12-11.328-.295-12.062-12l.882-4.531h5.414l-.883,4.531q.5,6.885,6.649,7.061,6.414-.236,6.826-7.061v-2.354q-1.059-6.8-6.826-6.8h-3.03v-4.943h3.03q6.207-.647,6.973-8.444-1.207-6.825-8.415-6.737v-5.06q12.151-.029,13.681,11.8-.588,7.8-6.62,10.562,5.531,1.942,6.59,9.621Z" transform="translate(-25.214 -17.98)" fill="#fff"/>
  </g>
</svg>
