<svg xmlns="http://www.w3.org/2000/svg" width="38.871" height="38.488" viewBox="0 0 38.871 38.488">
  <g id="linkedin" opacity="0.71">
    <g id="Group_11" data-name="Group 11" transform="translate(0 11.764)">
      <g id="Group_10" data-name="Group 10">
        <rect id="Rectangle_4" data-name="Rectangle 4" width="8.693" height="26.724" fill="#fff"/>
      </g>
    </g>
    <g id="Group_13" data-name="Group 13" transform="translate(12.147 11.764)">
      <g id="Group_12" data-name="Group 12">
        <path id="Path_7" data-name="Path 7" d="M180.223,160.313c-.092-.029-.18-.061-.277-.087-.117-.027-.233-.049-.352-.068a7.791,7.791,0,0,0-1.56-.158c-5.068,0-8.282,3.685-9.341,5.109V160H160v26.724h8.693V172.147s6.569-9.149,9.341-2.429v17.006h8.69V168.69A8.667,8.667,0,0,0,180.223,160.313Z" transform="translate(-160 -160)" fill="#fff"/>
      </g>
    </g>
    <g id="Group_15" data-name="Group 15" transform="translate(0.463 0)">
      <g id="Group_14" data-name="Group 14" transform="translate(0 0)">
        <ellipse id="Ellipse_2" data-name="Ellipse 2" cx="3.794" cy="3.794" rx="3.794" ry="3.794" fill="#fff"/>
      </g>
    </g>
  </g>
</svg>
